<?xml version="1.0" standalone="no"?>
<!DOCTYPE svg PUBLIC "-//W3C//DTD SVG 20010904//EN"
 "http://www.w3.org/TR/2001/REC-SVG-20010904/DTD/svg10.dtd">
<svg version="1.0" xmlns="http://www.w3.org/2000/svg"
 width="2448.000000pt" height="2448.000000pt" viewBox="0 0 2448.000000 2448.000000"
 preserveAspectRatio="xMidYMid meet">
<metadata>
Created by potrace 1.11, written by Peter Selinger 2001-2013
</metadata>
<g transform="translate(0.000000,2448.000000) scale(0.100000,-0.100000)"
fill="#000000" stroke="none">
<path d="M17878 20852 c-32 -2 -58 -6 -58 -11 0 -32 -47 -256 -71 -341 -75
-261 -173 -437 -323 -578 -235 -221 -520 -296 -841 -222 -166 38 -213 52 -431
125 -194 65 -430 151 -629 230 -352 139 -517 199 -775 285 -398 133 -983 291
-1205 326 -16 3 -43 9 -60 14 -16 5 -48 11 -70 14 -45 6 -77 12 -151 27 -67
13 -138 24 -219 35 -27 3 -52 8 -55 9 -3 2 -35 7 -70 10 -36 4 -67 8 -70 10
-3 2 -43 6 -90 10 -47 4 -87 8 -90 10 -3 2 -43 6 -90 10 -47 3 -101 8 -120 10
-266 28 -1124 28 -1360 0 -19 -2 -69 -7 -110 -10 -41 -3 -91 -8 -110 -10 -19
-2 -53 -6 -75 -9 -22 -3 -65 -8 -95 -11 -30 -4 -66 -8 -80 -10 -14 -2 -45 -7
-70 -10 -56 -8 -98 -14 -130 -20 -14 -2 -43 -7 -65 -10 -39 -5 -62 -9 -115
-20 -14 -2 -40 -7 -59 -10 -73 -12 -332 -68 -446 -96 -66 -16 -127 -31 -135
-33 -121 -30 -411 -116 -595 -178 -168 -56 -468 -168 -479 -179 -6 -5 -15 -9
-22 -9 -6 0 -33 -10 -60 -22 -27 -12 -51 -22 -54 -23 -3 0 -31 -13 -64 -28
-32 -15 -60 -27 -62 -27 -18 0 -442 -205 -634 -307 -152 -81 -457 -256 -550
-318 -324 -212 -384 -253 -520 -353 -127 -94 -222 -167 -355 -275 -493 -398
-998 -925 -1410 -1472 -266 -354 -477 -682 -740 -1150 -96 -170 -295 -579
-382 -785 -24 -58 -52 -123 -62 -145 -49 -109 -191 -500 -254 -700 -101 -318
-206 -743 -261 -1050 -9 -49 -46 -277 -52 -315 -3 -19 -7 -46 -9 -60 -2 -14
-7 -52 -10 -85 -4 -33 -8 -71 -11 -85 -2 -14 -6 -56 -10 -95 -3 -38 -7 -81
-10 -95 -2 -14 -6 -68 -10 -120 -3 -52 -8 -111 -10 -130 -22 -208 -21 -926 1
-1190 2 -25 6 -81 10 -125 3 -44 8 -98 10 -120 14 -135 33 -299 39 -330 2 -11
7 -42 10 -70 76 -584 260 -1275 508 -1905 224 -567 547 -1182 874 -1661 71
-104 282 -392 324 -443 10 -11 53 -64 96 -116 201 -242 472 -526 709 -741 33
-30 66 -60 74 -67 7 -7 52 -46 100 -85 47 -40 88 -74 91 -77 14 -16 171 -138
290 -226 422 -314 923 -610 1415 -835 102 -47 119 -55 240 -107 233 -101 654
-255 860 -314 49 -14 47 -14 65 -20 8 -4 24 -8 35 -11 11 -3 67 -19 125 -35
111 -32 378 -101 420 -108 14 -3 52 -11 85 -19 69 -16 199 -44 265 -56 130
-23 217 -39 235 -43 19 -3 81 -13 135 -21 173 -26 243 -35 285 -40 28 -3 61
-8 75 -10 14 -2 54 -6 90 -10 36 -4 76 -8 90 -10 14 -2 59 -7 100 -10 41 -3
95 -8 120 -10 25 -2 90 -7 145 -10 55 -4 120 -9 145 -10 126 -10 464 -18 695
-18 482 -1 949 27 1330 79 22 3 54 7 70 9 65 9 191 27 210 31 11 2 63 11 115
20 83 13 200 36 265 51 11 2 34 6 50 9 66 11 370 88 531 134 265 77 635 207
814 287 30 14 69 31 85 38 139 61 568 281 655 335 8 5 67 40 130 78 227 135
473 302 723 491 123 93 373 293 387 310 3 3 32 28 65 56 33 27 62 52 65 55 3
3 46 41 95 85 137 121 220 200 459 438 l219 218 1 710 1 710 -35 -39 c-19 -22
-44 -50 -55 -63 -67 -78 -165 -190 -197 -224 -20 -22 -46 -51 -58 -65 -182
-212 -751 -779 -970 -967 -24 -21 -65 -56 -90 -79 -25 -22 -72 -62 -105 -90
-33 -27 -62 -51 -65 -54 -5 -5 -70 -57 -215 -171 -464 -366 -1013 -677 -1560
-884 -121 -45 -238 -87 -255 -90 -3 -1 -44 -13 -92 -28 -147 -46 -492 -131
-615 -152 -18 -3 -48 -7 -65 -10 -18 -3 -58 -10 -88 -15 -68 -11 -110 -17
-175 -25 -27 -3 -59 -8 -70 -10 -11 -2 -56 -7 -100 -10 -44 -4 -96 -9 -115
-11 -180 -19 -752 -25 -960 -11 -150 11 -230 17 -270 22 -19 3 -75 9 -125 15
-78 9 -130 17 -312 46 -18 3 -83 16 -145 30 -62 13 -124 27 -138 30 -14 3 -50
12 -80 20 -30 8 -65 17 -77 20 -35 7 -397 126 -408 134 -5 3 -32 15 -60 25
-27 9 -78 30 -113 46 -35 16 -65 29 -68 29 -19 0 -278 138 -424 225 -413 249
-813 611 -1131 1025 -105 136 -221 305 -308 448 -45 73 -81 135 -81 137 0 3
-12 24 -27 47 -26 42 -193 372 -231 458 -11 25 -32 74 -47 110 -14 36 -33 79
-40 96 -59 128 -243 658 -270 774 -2 8 -15 55 -30 104 -25 88 -94 344 -101
380 -2 10 -13 57 -24 105 -12 47 -27 113 -35 146 -17 72 -81 385 -89 435 -3
19 -10 60 -16 90 -6 30 -13 64 -14 75 -2 11 -8 47 -14 80 -6 33 -14 78 -17
100 -3 22 -10 67 -15 100 -5 33 -12 80 -15 105 -3 25 -8 52 -10 60 -2 8 -7 40
-10 70 -3 30 -7 66 -10 80 -2 14 -6 48 -9 75 -12 118 -16 152 -21 180 -2 17
-7 59 -11 95 -3 36 -7 83 -9 105 -2 22 -6 69 -9 105 -3 36 -8 94 -11 130 -50
588 -65 1569 -30 2015 2 28 7 97 10 155 4 58 8 119 9 135 2 17 7 68 10 115 4
47 9 96 11 110 2 14 7 54 10 90 4 36 8 76 10 90 2 14 6 50 9 80 13 106 17 135
21 160 3 14 7 43 10 65 3 22 7 54 10 70 7 42 14 84 21 130 5 34 41 239 58 325
172 908 526 1908 891 2518 28 46 55 91 60 100 104 174 341 493 499 670 607
684 1415 1221 2233 1486 172 55 491 136 601 152 20 2 60 9 87 14 28 6 73 12
100 15 28 3 61 8 75 10 14 2 57 7 95 10 39 4 84 9 100 11 177 21 691 21 875 0
19 -3 62 -7 95 -10 156 -16 376 -51 520 -83 38 -8 81 -18 95 -20 14 -3 83 -21
154 -40 860 -230 1679 -720 2338 -1400 135 -140 247 -268 354 -409 103 -135
128 -168 206 -284 410 -604 725 -1329 938 -2163 l43 -167 231 2 231 3 1 2838
1 2837 -51 0 c-28 0 -107 2 -176 3 -69 1 -151 1 -182 -1z"/>
<path d="M20425 6014 c-94 -17 -86 -15 -152 -38 -308 -104 -580 -396 -662
-711 -94 -359 -10 -741 218 -988 20 -22 45 -49 56 -61 24 -25 117 -102 161
-133 66 -46 223 -116 289 -129 11 -2 43 -9 70 -16 55 -14 315 -17 380 -5 224
42 393 132 555 296 166 168 255 335 295 554 13 69 14 303 2 373 -46 264 -202
516 -424 680 -107 79 -272 155 -372 170 -20 3 -52 9 -71 13 -61 13 -262 10
-345 -5z"/>
</g>
</svg>
